<?xml version="1.0" encoding="UTF-8"?>
<svg id="Warstwa_1" data-name="Warstwa 1" xmlns="http://www.w3.org/2000/svg" xmlns:xlink="http://www.w3.org/1999/xlink" viewBox="0 0 320.4 297.01">
  <defs>
    <style>
      .cls-1 {
        fill: #2b9dc1;
      }

      .cls-2 {
        fill: none;
      }

      .cls-3 {
        fill: #fff7e9;
      }

      .cls-4 {
        fill: #2f323f;
      }

      .cls-5 {
        fill: #ffce35;
      }

      .cls-6 {
        clip-path: url(#clippath);
      }
    </style>
    <clipPath id="clippath">
      <rect class="cls-2" x="25.76" y="59.28" width="256.65" height="199.18" rx="82.32" ry="82.32"/>
    </clipPath>
  </defs>
  <path class="cls-4" d="M261.97,283.27c-21.11-6.54-40.18-17.67-56.05-32.26,18.4-7.29,34.12-19.9,45.25-35.95,3.6,21.16,9.57,41.51,17.61,60.78,1.82,4.36-2.31,8.81-6.81,7.42Z"/>
  <g class="cls-6">
    <rect class="cls-4" x="3.95" y="41.46" width="316.44" height="255.56"/>
    <path class="cls-5" d="M287.83,105.46c5.34,174.11-124.21,115-124.21,175.33,0,1.01-59.86-7.82-59.86-14.56,0-51.17,194.86-19.11,171.19-195.56-5.12-38.16,12.53,35.99,12.88,34.78Z"/>
    <path class="cls-5" d="M264.89,49.18c16.05,188-200,139.07-206.88,218.67C57.92,268.85-.52,194.96,0,188.25,15.31-6.79,106.43,50.64,236.89,38.51c4.44-.41,27.65,11.88,28,10.67Z"/>
  </g>
  <path class="cls-1" d="M209.93,51.28c.89-37.35-51.19-42.57-65.54-12.14-.79,1.68-3.35.99-3.22-.87,3.15-46.38,56.24-46.06,78.62-23.12,11.47,11.76,7.03,31.01-7.43,37.71-1.16.54-2.46-.31-2.43-1.58Z"/>
  <path class="cls-1" d="M189.46,74.98c8.44-5.58,16.69-9.63,26.31-12.5,108.82-26.07,37.93,129.99-48.24,82.37-1.72-.95-.77-3.54,1.16-3.17,74.14,14.31,137.58-94.13,22.16-63.64-1.86.49-2.99-2-1.39-3.06Z"/>
  <g>
    <rect class="cls-4" x="41.52" y="94.73" width="58.22" height="87.12" rx="29.11" ry="29.11"/>
    <path class="cls-3" d="M62.89,133.91c-1.96-1.61-9.3-7.64-8.32-14.68,1.28-9.17,16.22-16.86,26.54-12.21,11.79,5.31,14.16,25.16,6.84,31.47-5.98,5.15-18.2,1.06-25.06-4.58Z"/>
  </g>
  <g>
    <rect class="cls-4" x="99.74" y="94.73" width="58.22" height="87.12" rx="29.11" ry="29.11"/>
    <path class="cls-3" d="M121.11,133.91c-1.96-1.61-9.3-7.64-8.32-14.68,1.28-9.17,16.22-16.86,26.54-12.21,11.79,5.31,14.16,25.16,6.84,31.47-5.98,5.15-18.2,1.06-25.06-4.58Z"/>
  </g>
</svg>